<?xml version="1.0" encoding="UTF-8"?>
<svg id="Layer_2" data-name="Layer 2" xmlns="http://www.w3.org/2000/svg" viewBox="0 0 492.07 492.07">
  <defs>
    <style>
      .cls-1 {
        fill: #3e4c62;
      }

      .cls-2 {
        fill: #d82a12;
        fill-rule: evenodd;
      }
    </style>
  </defs>
  <g id="Layer_1-2" data-name="Layer 1">
    <g>
      <path class="cls-1" d="M175.24,398.7v-37.7c0-7.35-6.01-13.18-13.27-13.27h-.17c-7.28,0-13.36,5.77-13.45,13.1v37.45c0,51.6,42.6,93.46,94.91,93.79h.62c52.39,0,95.2-41.67,95.53-93.18v-33.67c0-7.36-6.01-13.19-13.28-13.28h-.17c-7.28,0-13.35,5.77-13.44,13.11v33.24c0,36.99-30.71,67.23-68.64,67.23s-68.4-30.02-68.64-66.81h0Z"/>
      <path class="cls-1" d="M133.51,146.58h-37.99C43.14,146.58,.33,188.24,0,239.77v.61c0,51.6,42.6,93.46,94.91,93.79h34.33c7.28,0,13.35-5.78,13.44-13.11v-.17c0-7.36-6.01-13.19-13.27-13.28h-34.33c-37.57-.23-67.95-30.16-68.19-66.81v-.43c0-36.85,30.47-67,68.19-67.25h38.43c7.28,0,13.35-5.78,13.45-13.11v-.17c0-7.4-6.12-13.28-13.45-13.28h0Z"/>
      <path class="cls-2" d="M251.15,270.27l-.21,.03c-4.92,.8-9.8,.24-14.46-1.6h0c-6.78-2.67-12.07-7.74-14.93-14.3-2.86-6.54-2.94-13.77-.25-20.38,2.71-6.62,7.89-11.82,14.59-14.64,6.74-2.82,14.16-2.91,20.97-.24l.07,.03c6.75,2.67,12.01,7.73,14.87,14.27,2.86,6.55,2.94,13.77,.24,20.38l1.58,2.35h0l-1.58-2.35c-3.25,7.99-3.15,16.76,.3,24.67,3.45,7.89,9.82,13.99,17.91,17.18,16.71,6.56,35.76-1.43,42.47-17.88,19.04-46.63-4.14-99.73-51.61-118.38-47.03-18.49-100.61,3.71-120.03,49.55l-.45,1.08c-9.22,22.59-8.93,47.36,.83,69.72,9.75,22.35,27.79,39.64,50.77,48.67,11.01,4.33,21.72,6.79,33.46,6.79h28.5c3.15,.01,5.22,.01,15.22,0h103.5l.06-.05h4.21c52.36-.33,94.91-42.25,94.91-93.79s-42.88-93.8-95.53-93.8h-45.1c-5.44,0-9.83-4.3-9.83-9.55v-44.24C341.61,42.45,299.39,.66,247.31,.01h0s-1.23-.01-1.23-.01c-52.64,0-95.53,42.04-95.53,93.79v28.24c0,7.36,6.07,13.27,13.45,13.27s13.44-5.91,13.44-13.27v-28.24c0-37.04,30.77-67.23,68.64-67.23s68.64,30.19,68.64,67.23v44.24c0,19.95,16.51,36.11,36.72,36.11h44.1c37.87,0,68.64,30.19,68.64,67.25s-30.77,67.23-68.64,67.23l-14.61,.37s-117.36,0-117.36,0c-14.8-.23-29.39-1.33-41.11-5.94-16.12-6.33-28.75-18.44-35.58-34.09-6.82-15.62-7.02-32.9-.57-48.69h0c13.31-32.62,51.25-48.55,84.57-35.47,33.28,13.07,49.47,50.22,36.18,82.79-1.02,2.49-3.98,3.73-6.56,2.7l-.28,1.46v-.02l.26-1.44c-1.24-.48-2.21-1.41-2.72-2.6h0c-.52-1.17-.53-2.46-.05-3.66,5.47-13.41,5.3-28.12-.49-41.4h0c-5.78-13.27-16.5-23.52-30.12-28.88-28.11-11.05-60.16,2.4-71.45,30.05-5.48,13.41-5.3,28.12,.49,41.41,5.78,13.27,16.5,23.52,30.12,28.87,9.36,3.68,19.53,4.76,29.42,3.14,7.52-1.23,12.65-8.25,11.38-15.74h0c-1.28-7.47-8.42-12.41-15.9-11.22h0Zm139.69,62.66c.54,.41,1.78,1.95,2.02,2.25-.15-.02-.72-.11-1.25-.44-.52-.33-1-.89-1.01-1.82h.24Z"/>
    </g>
  </g>
</svg>