<?xml version="1.0" encoding="UTF-8" standalone="no"?><!DOCTYPE svg PUBLIC "-//W3C//DTD SVG 1.1//EN" "http://www.w3.org/Graphics/SVG/1.1/DTD/svg11.dtd"><svg width="100%" height="100%" viewBox="0 0 167 44" version="1.1" xmlns="http://www.w3.org/2000/svg" xmlns:xlink="http://www.w3.org/1999/xlink" xml:space="preserve" xmlns:serif="http://www.serif.com/" style="fill-rule:evenodd;clip-rule:evenodd;stroke-linejoin:round;stroke-miterlimit:2;"><g><path d="M15.842,35.279l0,-0.037l0,-3.242c0,-0.639 -0.523,-1.146 -1.154,-1.154l-0.015,-0c-0.633,-0 -1.162,0.502 -1.17,1.139l0,0.015l0,3.242c0,4.488 3.705,8.129 8.255,8.158l0.054,-0c4.557,-0 8.28,-3.624 8.309,-8.105l0,-0.053l0,-2.876c0,-0.64 -0.523,-1.147 -1.155,-1.155l-0.015,-0c-0.633,-0 -1.161,0.502 -1.169,1.14l-0,0.015l-0,2.876c-0,3.217 -2.671,5.848 -5.97,5.848c-3.286,0 -5.949,-2.611 -5.97,-5.811Z" style="fill:#3e4c62;fill-rule:nonzero;"/><path d="M12.213,13.349l-3.304,0c-4.557,0 -8.28,3.624 -8.309,8.106l0,0.053c0,4.488 3.705,8.129 8.255,8.158l0.054,-0l2.932,-0c0.633,-0 1.161,-0.503 1.169,-1.14l0,-0.015c0,-0.64 -0.523,-1.147 -1.154,-1.155l-0.015,-0l-2.932,-0l-0.039,-0c-3.268,-0.02 -5.91,-2.623 -5.931,-5.811l0,-0.037c0,-3.205 2.65,-5.828 5.931,-5.849l0.039,0l3.304,0c0.633,0 1.161,-0.503 1.17,-1.14l-0,-0.015c-0,-0.644 -0.532,-1.155 -1.17,-1.155Z" style="fill:#3e4c62;fill-rule:nonzero;"/><path d="M22.445,24.108l-0.018,0.003c-0.428,0.07 -0.852,0.021 -1.258,-0.139l-0,-0c-0.59,-0.232 -1.05,-0.673 -1.299,-1.244c-0.249,-0.569 -0.256,-1.198 -0.022,-1.773c0.236,-0.576 0.686,-1.028 1.269,-1.273c0.586,-0.245 1.232,-0.253 1.824,-0.021l0.006,0.003c0.587,0.232 1.045,0.672 1.293,1.241c0.249,0.57 0.256,1.198 0.021,1.773l0.137,0.204l0,-0l-0.137,-0.204c-0.283,0.695 -0.274,1.458 0.026,2.146c0.3,0.686 0.854,1.217 1.558,1.494c1.453,0.571 3.11,-0.124 3.694,-1.555c1.656,-4.056 -0.36,-8.674 -4.489,-10.297c-4.091,-1.608 -8.751,0.323 -10.44,4.31l-0.039,0.094c-0.802,1.965 -0.777,4.119 0.072,6.064c0.848,1.944 2.417,3.448 4.416,4.233c0.958,0.377 1.889,0.591 2.91,0.591c-0,-0 2.479,0 2.479,0c0.274,0.001 0.454,0.001 1.324,-0c-0,-0 9.002,-0 9.002,-0c-0,-0 0.005,-0.004 0.005,-0.004l0.366,-0c4.554,-0.029 8.255,-3.675 8.255,-8.158c-0,-4.502 -3.73,-8.159 -8.309,-8.159l-3.923,0c-0.473,0 -0.855,-0.374 -0.855,-0.831c0,0 0,-3.848 0,-3.848c0,-4.466 -3.672,-8.101 -8.202,-8.157l0,0.001l-0.107,-0.002c-4.579,-0 -8.309,3.657 -8.309,8.158l0,2.456c0,0.64 0.528,1.154 1.17,1.154c0.641,0 1.169,-0.514 1.169,-1.154l0,-2.456c0,-3.222 2.676,-5.848 5.97,-5.848c3.294,-0 5.97,2.626 5.97,5.848l-0,3.848c-0,1.735 1.436,3.141 3.194,3.141l3.836,0c3.294,0 5.97,2.626 5.97,5.849c-0,3.222 -2.676,5.848 -5.97,5.848l-1.271,0.032c0.001,-0 -10.208,-0 -10.208,-0c-1.287,-0.02 -2.556,-0.116 -3.576,-0.517c-1.402,-0.551 -2.501,-1.604 -3.095,-2.965c-0.593,-1.359 -0.611,-2.862 -0.05,-4.235l-0,0c1.158,-2.837 4.458,-4.223 7.356,-3.085c2.895,1.137 4.303,4.368 3.147,7.201c-0.089,0.217 -0.346,0.324 -0.571,0.235l-0.024,0.127l-0,-0.002l0.023,-0.125c-0.108,-0.042 -0.192,-0.123 -0.237,-0.226l-0,-0c-0.045,-0.102 -0.046,-0.214 -0.004,-0.318c0.476,-1.166 0.461,-2.446 -0.043,-3.601l0,-0c-0.503,-1.154 -1.435,-2.046 -2.62,-2.512c-2.445,-0.961 -5.233,0.209 -6.215,2.614c-0.477,1.166 -0.461,2.446 0.043,3.602c0.503,1.154 1.435,2.046 2.62,2.511c0.814,0.32 1.699,0.414 2.559,0.273c0.654,-0.107 1.1,-0.718 0.99,-1.369l-0,-0c-0.111,-0.65 -0.732,-1.079 -1.383,-0.976Zm12.15,5.45c0.047,0.036 0.155,0.17 0.176,0.196c-0.013,-0.002 -0.063,-0.01 -0.109,-0.038c-0.045,-0.029 -0.087,-0.077 -0.088,-0.158l0.021,-0Z" style="fill:#d82a12;"/><path d="M54.232,19l0,-10.432l2.576,0l1.68,4.64c0.107,0.299 0.208,0.613 0.304,0.944c0.096,0.331 0.197,0.656 0.304,0.976l0.064,0c0.107,-0.32 0.203,-0.645 0.288,-0.976c0.096,-0.331 0.197,-0.645 0.304,-0.944l1.648,-4.64l2.56,-0l-0,10.432l-2.144,0l-0,-3.824c-0,-0.341 0.016,-0.72 0.048,-1.136c0.043,-0.427 0.085,-0.853 0.128,-1.28c0.053,-0.427 0.096,-0.805 0.128,-1.136l-0.064,0l-0.848,2.48l-1.488,3.984l-1.296,0l-1.488,-3.984l-0.832,-2.48l-0.064,0c0.043,0.331 0.085,0.709 0.128,1.136c0.043,0.427 0.08,0.853 0.112,1.28c0.043,0.416 0.064,0.795 0.064,1.136l-0,3.824l-2.112,-0Z" style="fill:#3e4c62;fill-rule:nonzero;"/><path d="M69.78,19.192c-0.758,0 -1.441,-0.165 -2.049,-0.496c-0.607,-0.331 -1.087,-0.805 -1.439,-1.424c-0.353,-0.619 -0.529,-1.365 -0.529,-2.24c0,-0.864 0.176,-1.605 0.528,-2.224c0.363,-0.619 0.832,-1.093 1.408,-1.424c0.576,-0.341 1.179,-0.512 1.808,-0.512c0.758,-0 1.382,0.171 1.872,0.512c0.502,0.331 0.875,0.784 1.12,1.36c0.256,0.565 0.384,1.211 0.384,1.936c0,0.203 -0.01,0.405 -0.032,0.608c-0.021,0.192 -0.042,0.336 -0.064,0.432l-4.752,-0c0.107,0.576 0.347,1.003 0.72,1.28c0.374,0.267 0.822,0.4 1.344,0.4c0.566,-0 1.136,-0.176 1.712,-0.528l0.784,1.424c-0.405,0.277 -0.858,0.496 -1.36,0.656c-0.501,0.16 -0.986,0.24 -1.456,0.24Zm-1.76,-5.024l2.864,0c0,-0.437 -0.106,-0.795 -0.32,-1.072c-0.202,-0.288 -0.538,-0.432 -1.008,-0.432c-0.362,0 -0.688,0.128 -0.976,0.384c-0.288,0.245 -0.474,0.619 -0.56,1.12Z" style="fill:#3e4c62;fill-rule:nonzero;"/><path d="M76.893,19.192c-0.864,0 -1.494,-0.283 -1.888,-0.848c-0.384,-0.576 -0.576,-1.36 -0.576,-2.352l-0,-4.928l2.352,0l-0,4.624c-0,0.565 0.08,0.96 0.24,1.184c0.16,0.213 0.41,0.32 0.752,0.32c0.298,0 0.549,-0.069 0.752,-0.208c0.202,-0.139 0.421,-0.363 0.656,-0.672l-0,-5.248l2.352,0l-0,7.936l-1.92,0l-0.176,-1.104l-0.048,0c-0.331,0.395 -0.694,0.709 -1.088,0.944c-0.395,0.235 -0.864,0.352 -1.408,0.352Z" style="fill:#3e4c62;fill-rule:nonzero;"/><path d="M86.998,19l-0,-10.432l3.76,0c0.736,0 1.408,0.101 2.016,0.304c0.608,0.192 1.093,0.523 1.456,0.992c0.362,0.469 0.544,1.12 0.544,1.952c-0,0.768 -0.171,1.403 -0.512,1.904c-0.331,0.491 -0.779,0.859 -1.344,1.104l2.368,4.176l-2.64,0l-2,-3.76l-1.296,0l-0,3.76l-2.352,0Zm2.352,-5.632l1.216,0c0.618,0 1.088,-0.128 1.408,-0.384c0.33,-0.267 0.496,-0.656 0.496,-1.168c-0,-0.512 -0.166,-0.869 -0.496,-1.072c-0.32,-0.203 -0.79,-0.304 -1.408,-0.304l-1.216,0l-0,2.928Z" style="fill:#3e4c62;fill-rule:nonzero;"/><path d="M100.014,19.192c-0.757,0 -1.44,-0.165 -2.048,-0.496c-0.608,-0.331 -1.088,-0.805 -1.44,-1.424c-0.352,-0.619 -0.528,-1.365 -0.528,-2.24c-0,-0.864 0.176,-1.605 0.528,-2.224c0.362,-0.619 0.832,-1.093 1.408,-1.424c0.576,-0.341 1.178,-0.512 1.808,-0.512c0.757,-0 1.381,0.171 1.872,0.512c0.501,0.331 0.875,0.784 1.12,1.36c0.256,0.565 0.384,1.211 0.384,1.936c-0,0.203 -0.011,0.405 -0.032,0.608c-0.021,0.192 -0.043,0.336 -0.064,0.432l-4.752,-0c0.106,0.576 0.346,1.003 0.72,1.28c0.373,0.267 0.821,0.4 1.344,0.4c0.565,-0 1.136,-0.176 1.712,-0.528l0.784,1.424c-0.405,0.277 -0.859,0.496 -1.36,0.656c-0.501,0.16 -0.987,0.24 -1.456,0.24Zm-1.76,-5.024l2.864,0c-0,-0.437 -0.107,-0.795 -0.32,-1.072c-0.203,-0.288 -0.539,-0.432 -1.008,-0.432c-0.363,0 -0.688,0.128 -0.976,0.384c-0.288,0.245 -0.475,0.619 -0.56,1.12Z" style="fill:#3e4c62;fill-rule:nonzero;"/><path d="M108.199,19.192c-0.736,0 -1.403,-0.16 -2,-0.48c-0.587,-0.331 -1.056,-0.805 -1.408,-1.424c-0.341,-0.629 -0.512,-1.381 -0.512,-2.256c0,-0.885 0.192,-1.637 0.576,-2.256c0.384,-0.619 0.891,-1.088 1.52,-1.408c0.629,-0.331 1.307,-0.496 2.032,-0.496c0.491,0 0.923,0.08 1.296,0.24c0.384,0.16 0.725,0.363 1.024,0.608l-1.104,1.52c-0.373,-0.309 -0.731,-0.464 -1.072,-0.464c-0.565,0 -1.019,0.203 -1.36,0.608c-0.331,0.405 -0.496,0.955 -0.496,1.648c0,0.683 0.165,1.232 0.496,1.648c0.341,0.405 0.768,0.608 1.28,0.608c0.256,0 0.507,-0.053 0.752,-0.16c0.245,-0.117 0.469,-0.256 0.672,-0.416l0.928,1.536c-0.395,0.341 -0.821,0.587 -1.28,0.736c-0.459,0.139 -0.907,0.208 -1.344,0.208Z" style="fill:#3e4c62;fill-rule:nonzero;"/><path d="M115.311,19.192c-0.758,0 -1.44,-0.165 -2.048,-0.496c-0.608,-0.331 -1.088,-0.805 -1.44,-1.424c-0.352,-0.619 -0.528,-1.365 -0.528,-2.24c0,-0.864 0.176,-1.605 0.528,-2.224c0.362,-0.619 0.832,-1.093 1.408,-1.424c0.576,-0.341 1.178,-0.512 1.808,-0.512c0.757,-0 1.381,0.171 1.872,0.512c0.501,0.331 0.874,0.784 1.12,1.36c0.256,0.565 0.384,1.211 0.384,1.936c-0,0.203 -0.011,0.405 -0.032,0.608c-0.022,0.192 -0.043,0.336 -0.064,0.432l-4.752,-0c0.106,0.576 0.346,1.003 0.72,1.28c0.373,0.267 0.821,0.4 1.344,0.4c0.565,-0 1.136,-0.176 1.712,-0.528l0.784,1.424c-0.406,0.277 -0.859,0.496 -1.36,0.656c-0.502,0.16 -0.987,0.24 -1.456,0.24Zm-1.76,-5.024l2.864,0c-0,-0.437 -0.107,-0.795 -0.32,-1.072c-0.203,-0.288 -0.539,-0.432 -1.008,-0.432c-0.363,0 -0.688,0.128 -0.976,0.384c-0.288,0.245 -0.475,0.619 -0.56,1.12Z" style="fill:#3e4c62;fill-rule:nonzero;"/><path d="M120.04,19l0,-7.936l2.352,0l-0,7.936l-2.352,0Zm1.168,-9.104c-0.395,0 -0.715,-0.112 -0.96,-0.336c-0.245,-0.224 -0.368,-0.523 -0.368,-0.896c-0,-0.373 0.123,-0.672 0.368,-0.896c0.245,-0.224 0.565,-0.336 0.96,-0.336c0.395,0 0.715,0.112 0.96,0.336c0.245,0.224 0.368,0.523 0.368,0.896c0,0.373 -0.123,0.672 -0.368,0.896c-0.245,0.224 -0.565,0.336 -0.96,0.336Z" style="fill:#3e4c62;fill-rule:nonzero;"/><path d="M127.518,19.192c-0.981,0 -1.685,-0.283 -2.112,-0.848c-0.416,-0.565 -0.624,-1.307 -0.624,-2.224l-0,-3.216l-1.088,0l-0,-1.744l1.216,-0.096l0.272,-2.112l1.952,0l-0,2.112l1.904,0l0,1.84l-1.904,0l-0,3.184c-0,0.448 0.091,0.773 0.272,0.976c0.192,0.192 0.443,0.288 0.752,0.288c0.128,0 0.256,-0.016 0.384,-0.048c0.139,-0.032 0.261,-0.069 0.368,-0.112l0.368,1.712c-0.203,0.064 -0.453,0.128 -0.752,0.192c-0.288,0.064 -0.624,0.096 -1.008,0.096Z" style="fill:#3e4c62;fill-rule:nonzero;"/><path d="M132.971,19.192c-0.864,0 -1.493,-0.283 -1.888,-0.848c-0.384,-0.576 -0.576,-1.36 -0.576,-2.352l0,-4.928l2.352,0l0,4.624c0,0.565 0.08,0.96 0.24,1.184c0.16,0.213 0.411,0.32 0.752,0.32c0.299,0 0.549,-0.069 0.752,-0.208c0.203,-0.139 0.421,-0.363 0.656,-0.672l-0,-5.248l2.352,0l-0,7.936l-1.92,0l-0.176,-1.104l-0.048,0c-0.331,0.395 -0.693,0.709 -1.088,0.944c-0.395,0.235 -0.864,0.352 -1.408,0.352Z" style="fill:#3e4c62;fill-rule:nonzero;"/><path d="M141.681,19.192c-0.726,0 -1.302,-0.229 -1.728,-0.688c-0.427,-0.469 -0.64,-1.04 -0.64,-1.712c-0,-0.832 0.352,-1.483 1.056,-1.952c0.704,-0.469 1.84,-0.784 3.408,-0.944c-0.022,-0.352 -0.128,-0.629 -0.32,-0.832c-0.182,-0.213 -0.491,-0.32 -0.928,-0.32c-0.331,0 -0.667,0.064 -1.008,0.192c-0.342,0.128 -0.704,0.304 -1.088,0.528l-0.848,-1.552c0.501,-0.309 1.034,-0.56 1.6,-0.752c0.576,-0.192 1.173,-0.288 1.792,-0.288c1.013,0 1.792,0.293 2.336,0.88c0.544,0.587 0.816,1.488 0.816,2.704l-0,4.544l-1.92,0l-0.16,-0.816l-0.064,0c-0.331,0.299 -0.688,0.544 -1.072,0.736c-0.374,0.181 -0.784,0.272 -1.232,0.272Zm0.8,-1.824c0.266,0 0.496,-0.059 0.688,-0.176c0.202,-0.128 0.405,-0.293 0.608,-0.496l-0,-1.392c-0.832,0.107 -1.408,0.277 -1.728,0.512c-0.32,0.224 -0.48,0.491 -0.48,0.8c-0,0.256 0.08,0.448 0.24,0.576c0.17,0.117 0.394,0.176 0.672,0.176Zm0.736,-7.52l-1.152,-1.152l2.464,-2.912l1.584,1.552l-2.896,2.512Z" style="fill:#3e4c62;fill-rule:nonzero;"/><path d="M148.118,19l0,-7.936l1.92,0l0.16,1.392l0.064,0c0.288,-0.533 0.635,-0.928 1.04,-1.184c0.405,-0.267 0.811,-0.4 1.216,-0.4c0.224,0 0.411,0.016 0.56,0.048c0.149,0.021 0.277,0.059 0.384,0.112l-0.384,2.032c-0.139,-0.043 -0.277,-0.075 -0.416,-0.096c-0.128,-0.021 -0.277,-0.032 -0.448,-0.032c-0.299,0 -0.613,0.112 -0.944,0.336c-0.32,0.213 -0.587,0.587 -0.8,1.12l0,4.608l-2.352,0Z" style="fill:#3e4c62;fill-rule:nonzero;"/><path d="M154.493,19l0,-7.936l2.352,0l0,7.936l-2.352,0Zm1.168,-9.104c-0.395,0 -0.715,-0.112 -0.96,-0.336c-0.245,-0.224 -0.368,-0.523 -0.368,-0.896c0,-0.373 0.123,-0.672 0.368,-0.896c0.245,-0.224 0.565,-0.336 0.96,-0.336c0.395,0 0.715,0.112 0.96,0.336c0.245,0.224 0.368,0.523 0.368,0.896c0,0.373 -0.123,0.672 -0.368,0.896c-0.245,0.224 -0.565,0.336 -0.96,0.336Z" style="fill:#3e4c62;fill-rule:nonzero;"/><path d="M162.323,19.192c-0.672,0 -1.307,-0.16 -1.904,-0.48c-0.587,-0.331 -1.061,-0.805 -1.424,-1.424c-0.363,-0.629 -0.544,-1.381 -0.544,-2.256c0,-0.885 0.181,-1.637 0.544,-2.256c0.363,-0.619 0.837,-1.088 1.424,-1.408c0.597,-0.331 1.232,-0.496 1.904,-0.496c0.672,0 1.301,0.165 1.888,0.496c0.587,0.32 1.061,0.789 1.424,1.408c0.363,0.619 0.544,1.371 0.544,2.256c-0,0.875 -0.181,1.627 -0.544,2.256c-0.363,0.619 -0.837,1.093 -1.424,1.424c-0.587,0.32 -1.216,0.48 -1.888,0.48Zm0,-1.904c0.48,0 0.843,-0.203 1.088,-0.608c0.245,-0.416 0.368,-0.965 0.368,-1.648c0,-0.693 -0.123,-1.243 -0.368,-1.648c-0.245,-0.405 -0.608,-0.608 -1.088,-0.608c-0.491,0 -0.859,0.203 -1.104,0.608c-0.235,0.405 -0.352,0.955 -0.352,1.648c0,0.683 0.117,1.232 0.352,1.648c0.245,0.405 0.613,0.608 1.104,0.608Z" style="fill:#3e4c62;fill-rule:nonzero;"/><path d="M54.232,37l0,-10.432l2.944,0c1.067,0 1.989,0.181 2.768,0.544c0.779,0.363 1.381,0.928 1.808,1.696c0.437,0.757 0.656,1.733 0.656,2.928c0,1.195 -0.213,2.181 -0.64,2.96c-0.427,0.779 -1.024,1.36 -1.792,1.744c-0.757,0.373 -1.648,0.56 -2.672,0.56l-3.072,0Zm2.352,-1.904l0.448,0c0.597,0 1.115,-0.107 1.552,-0.32c0.448,-0.213 0.795,-0.565 1.04,-1.056c0.245,-0.491 0.368,-1.152 0.368,-1.984c0,-0.832 -0.123,-1.483 -0.368,-1.952c-0.245,-0.48 -0.592,-0.816 -1.04,-1.008c-0.437,-0.203 -0.955,-0.304 -1.552,-0.304l-0.448,0l0,6.624Z" style="fill:#3e4c62;fill-rule:nonzero;"/><path d="M64.196,37l0,-7.936l2.352,0l0,7.936l-2.352,0Zm1.168,-9.104c-0.394,0 -0.714,-0.112 -0.96,-0.336c-0.245,-0.224 -0.368,-0.523 -0.368,-0.896c0,-0.373 0.123,-0.672 0.368,-0.896c0.246,-0.224 0.566,-0.336 0.96,-0.336c0.395,-0 0.715,0.112 0.96,0.336c0.246,0.224 0.368,0.523 0.368,0.896c0,0.373 -0.122,0.672 -0.368,0.896c-0.245,0.224 -0.565,0.336 -0.96,0.336Z" style="fill:#3e4c62;fill-rule:nonzero;"/><path d="M71.45,40.376c-0.618,0 -1.178,-0.069 -1.68,-0.208c-0.501,-0.139 -0.901,-0.357 -1.2,-0.656c-0.298,-0.299 -0.448,-0.683 -0.448,-1.152c0,-0.64 0.379,-1.173 1.136,-1.6l0,-0.064c-0.203,-0.139 -0.379,-0.315 -0.528,-0.528c-0.138,-0.213 -0.208,-0.485 -0.208,-0.816c0,-0.288 0.086,-0.565 0.256,-0.832c0.171,-0.267 0.384,-0.485 0.64,-0.656l0,-0.064c-0.277,-0.192 -0.528,-0.469 -0.752,-0.832c-0.213,-0.363 -0.32,-0.773 -0.32,-1.232c0,-0.64 0.155,-1.168 0.464,-1.584c0.309,-0.427 0.715,-0.747 1.216,-0.96c0.502,-0.213 1.035,-0.32 1.6,-0.32c0.47,0 0.88,0.064 1.232,0.192l2.896,0l0,1.712l-1.264,0c0.075,0.117 0.134,0.267 0.176,0.448c0.053,0.181 0.08,0.379 0.08,0.592c0,0.608 -0.138,1.109 -0.416,1.504c-0.277,0.395 -0.65,0.688 -1.12,0.88c-0.469,0.192 -0.997,0.288 -1.584,0.288c-0.309,0 -0.629,-0.053 -0.96,-0.16c-0.192,0.16 -0.288,0.357 -0.288,0.592c0,0.203 0.091,0.352 0.272,0.448c0.181,0.096 0.491,0.144 0.928,0.144l1.28,0c0.981,0 1.728,0.16 2.24,0.48c0.523,0.309 0.784,0.821 0.784,1.536c0,0.544 -0.181,1.029 -0.544,1.456c-0.363,0.437 -0.875,0.779 -1.536,1.024c-0.661,0.245 -1.445,0.368 -2.352,0.368Zm0.176,-7.312c0.309,0 0.566,-0.112 0.768,-0.336c0.213,-0.224 0.32,-0.555 0.32,-0.992c0,-0.416 -0.106,-0.731 -0.32,-0.944c-0.203,-0.224 -0.459,-0.336 -0.768,-0.336c-0.309,-0 -0.571,0.107 -0.784,0.32c-0.203,0.213 -0.304,0.533 -0.304,0.96c0,0.437 0.102,0.768 0.304,0.992c0.213,0.224 0.475,0.336 0.784,0.336Zm0.192,5.84c0.534,0 0.971,-0.096 1.312,-0.288c0.342,-0.192 0.512,-0.421 0.512,-0.688c0,-0.245 -0.106,-0.411 -0.32,-0.496c-0.203,-0.085 -0.501,-0.128 -0.896,-0.128l-0.816,0c-0.266,0 -0.49,-0.011 -0.672,-0.032c-0.171,-0.011 -0.32,-0.032 -0.448,-0.064c-0.288,0.256 -0.432,0.517 -0.432,0.784c0,0.299 0.16,0.523 0.48,0.672c0.331,0.16 0.757,0.24 1.28,0.24Z" style="fill:#3e4c62;fill-rule:nonzero;"/><path d="M77.165,37l0,-7.936l2.352,0l-0,7.936l-2.352,0Zm1.168,-9.104c-0.395,0 -0.715,-0.112 -0.96,-0.336c-0.245,-0.224 -0.368,-0.523 -0.368,-0.896c-0,-0.373 0.123,-0.672 0.368,-0.896c0.245,-0.224 0.565,-0.336 0.96,-0.336c0.395,-0 0.715,0.112 0.96,0.336c0.245,0.224 0.368,0.523 0.368,0.896c0,0.373 -0.123,0.672 -0.368,0.896c-0.245,0.224 -0.565,0.336 -0.96,0.336Z" style="fill:#3e4c62;fill-rule:nonzero;"/><path d="M84.643,37.192c-0.981,0 -1.686,-0.283 -2.112,-0.848c-0.416,-0.565 -0.624,-1.307 -0.624,-2.224l-0,-3.216l-1.088,-0l-0,-1.744l1.216,-0.096l0.272,-2.112l1.952,-0l-0,2.112l1.904,-0l-0,1.84l-1.904,-0l-0,3.184c-0,0.448 0.09,0.773 0.272,0.976c0.192,0.192 0.442,0.288 0.752,0.288c0.128,-0 0.256,-0.016 0.384,-0.048c0.138,-0.032 0.261,-0.069 0.368,-0.112l0.368,1.712c-0.203,0.064 -0.454,0.128 -0.752,0.192c-0.288,0.064 -0.624,0.096 -1.008,0.096Z" style="fill:#3e4c62;fill-rule:nonzero;"/><path d="M89.399,37.192c-0.725,0 -1.301,-0.229 -1.728,-0.688c-0.426,-0.469 -0.64,-1.04 -0.64,-1.712c0,-0.832 0.352,-1.483 1.056,-1.952c0.704,-0.469 1.84,-0.784 3.408,-0.944c-0.021,-0.352 -0.128,-0.629 -0.32,-0.832c-0.181,-0.213 -0.49,-0.32 -0.928,-0.32c-0.33,0 -0.666,0.064 -1.008,0.192c-0.341,0.128 -0.704,0.304 -1.088,0.528l-0.848,-1.552c0.502,-0.309 1.035,-0.56 1.6,-0.752c0.576,-0.192 1.174,-0.288 1.792,-0.288c1.014,0 1.792,0.293 2.336,0.88c0.544,0.587 0.816,1.488 0.816,2.704l0,4.544l-1.92,0l-0.16,-0.816l-0.064,0c-0.33,0.299 -0.688,0.544 -1.072,0.736c-0.373,0.181 -0.784,0.272 -1.232,0.272Zm0.8,-1.824c0.267,0 0.496,-0.059 0.688,-0.176c0.203,-0.128 0.406,-0.293 0.608,-0.496l0,-1.392c-0.832,0.107 -1.408,0.277 -1.728,0.512c-0.32,0.224 -0.48,0.491 -0.48,0.8c0,0.256 0.08,0.448 0.24,0.576c0.171,0.117 0.395,0.176 0.672,0.176Z" style="fill:#3e4c62;fill-rule:nonzero;"/><path d="M97.997,37.192c-0.811,0 -1.376,-0.24 -1.696,-0.72c-0.309,-0.491 -0.464,-1.136 -0.464,-1.936l-0,-8.752l2.352,0l-0,8.848c-0,0.245 0.042,0.416 0.128,0.512c0.096,0.096 0.192,0.144 0.288,0.144l0.128,0c0.042,-0.011 0.096,-0.021 0.16,-0.032l0.288,1.744c-0.128,0.053 -0.293,0.096 -0.496,0.128c-0.192,0.043 -0.422,0.064 -0.688,0.064Z" style="fill:#3e4c62;fill-rule:nonzero;"/></g></svg>